<?xml version="1.0" encoding="UTF-8"?>
<svg width="225px" height="36px" viewBox="0 0 225 36" version="1.1" xmlns="http://www.w3.org/2000/svg" xmlns:xlink="http://www.w3.org/1999/xlink">
    <!-- Generator: Sketch 60.1 (88133) - https://sketch.com -->
    <title>BOWSHOT</title>
    <desc>Created with Sketch.</desc>
    <g id="Sign-In" stroke="none" stroke-width="1" fill="none" fill-rule="evenodd" fill-opacity="0.87">
        <path d="M12.2109375,35 C15.8359375,35 18.640625,34.125 20.625,32.375 C22.609375,30.625 23.6015625,28.21875 23.6015625,25.15625 C23.6015625,23.15625 23.0664062,21.4335938 21.9960938,19.9882812 C20.9257812,18.5429688 19.46875,17.5625 17.625,17.046875 C19.1875,16.375 20.421875,15.4257812 21.328125,14.1992188 C22.234375,12.9726562 22.6875,11.5625 22.6875,9.96875 C22.6875,6.96875 21.7539062,4.703125 19.8867188,3.171875 C18.0195312,1.640625 15.234375,0.875 11.53125,0.875 L11.53125,0.875 L0.375,0.875 L0.375,35 L12.2109375,35 Z M11.671875,15.4296875 L4.875,15.4296875 L4.875,4.578125 L11.53125,4.578125 C13.765625,4.578125 15.4296875,5.00390625 16.5234375,5.85546875 C17.6171875,6.70703125 18.1640625,8.0703125 18.1640625,9.9453125 C18.1640625,11.6328125 17.5742188,12.96875 16.3945312,13.953125 C15.2148438,14.9375 13.640625,15.4296875 11.671875,15.4296875 L11.671875,15.4296875 Z M12.3046875,31.3203125 L4.875,31.3203125 L4.875,19.0390625 L12.375,19.0390625 C16.84375,19.0390625 19.078125,21.09375 19.078125,25.203125 C19.078125,27.109375 18.4726562,28.6054688 17.2617188,29.6914062 C16.0507812,30.7773438 14.3984375,31.3203125 12.3046875,31.3203125 L12.3046875,31.3203125 Z M42.8203125,35.46875 C45.5703125,35.46875 47.9765625,34.8125 50.0390625,33.5 C52.1015625,32.1875 53.6953125,30.2851562 54.8203125,27.7929688 C55.9453125,25.3007812 56.5078125,22.3828125 56.5078125,19.0390625 L56.5078125,19.0390625 L56.5078125,16.8828125 C56.5078125,13.5546875 55.9453125,10.6367187 54.8203125,8.12890625 C53.6953125,5.62109375 52.0898438,3.70703125 50.0039062,2.38671875 C47.9179688,1.06640625 45.5078125,0.40625 42.7734375,0.40625 C40.0859375,0.40625 37.6992188,1.07421875 35.6132812,2.41015625 C33.5273438,3.74609375 31.9140625,5.671875 30.7734375,8.1875 C29.6328125,10.703125 29.0625,13.6015625 29.0625,16.8828125 L29.0625,16.8828125 L29.0625,19.34375 C29.09375,22.5625 29.6835938,25.3945312 30.8320312,27.8398438 C31.9804688,30.2851562 33.59375,32.1679688 35.671875,33.4882812 C37.75,34.8085938 40.1328125,35.46875 42.8203125,35.46875 Z M42.8203125,31.6484375 C39.9296875,31.6484375 37.6601562,30.5273438 36.0117188,28.2851562 C34.3632812,26.0429688 33.5390625,22.9609375 33.5390625,19.0390625 L33.5390625,19.0390625 L33.5390625,16.53125 C33.5859375,12.6875 34.4257812,9.68359375 36.0585938,7.51953125 C37.6914062,5.35546875 39.9296875,4.2734375 42.7734375,4.2734375 C45.6953125,4.2734375 47.96875,5.35546875 49.59375,7.51953125 C51.21875,9.68359375 52.03125,12.7890625 52.03125,16.8359375 L52.03125,16.8359375 L52.03125,19.3671875 C51.984375,23.3203125 51.1640625,26.3554688 49.5703125,28.4726562 C47.9765625,30.5898438 45.7265625,31.6484375 42.8203125,31.6484375 Z M73.078125,35 L80.3671875,10.1328125 L80.90625,7.53125 L81.4453125,10.1328125 L88.4765625,35 L92.578125,35 L100.851562,0.875 L96.328125,0.875 L91.03125,24.21875 L90.3046875,28.8125 L89.3671875,24.6875 L82.78125,0.875 L78.984375,0.875 L72.234375,24.6875 L71.2734375,28.7421875 L70.6171875,24.2421875 L65.2265625,0.875 L60.7265625,0.875 L68.9765625,35 L73.078125,35 Z M116.671875,35.46875 C120.28125,35.46875 123.164062,34.6367188 125.320312,32.9726562 C127.476562,31.3085938 128.554688,29.09375 128.554688,26.328125 C128.554688,24.59375 128.167969,23.0859375 127.394531,21.8046875 C126.621094,20.5234375 125.433594,19.4023438 123.832031,18.4414062 C122.230469,17.4804688 120.011719,16.6015625 117.175781,15.8046875 C114.339844,15.0078125 112.332031,14.1289062 111.152344,13.1679688 C109.972656,12.2070312 109.382812,11.03125 109.382812,9.640625 C109.382812,7.90625 110.003906,6.55078125 111.246094,5.57421875 C112.488281,4.59765625 114.21875,4.109375 116.4375,4.109375 C118.828125,4.109375 120.679688,4.69921875 121.992188,5.87890625 C123.304688,7.05859375 123.960938,8.6796875 123.960938,10.7421875 L123.960938,10.7421875 L128.484375,10.7421875 C128.484375,8.8515625 127.980469,7.109375 126.972656,5.515625 C125.964844,3.921875 124.542969,2.671875 122.707031,1.765625 C120.871094,0.859375 118.78125,0.40625 116.4375,0.40625 C113,0.40625 110.207031,1.28515625 108.058594,3.04296875 C105.910156,4.80078125 104.835938,7.0234375 104.835938,9.7109375 C104.835938,12.0859375 105.714844,14.0820312 107.472656,15.6992188 C109.230469,17.3164062 112.039062,18.6796875 115.898438,19.7890625 C118.976562,20.6796875 121.101562,21.5820313 122.273438,22.4960938 C123.445312,23.4101562 124.03125,24.703125 124.03125,26.375 C124.03125,28.046875 123.398438,29.3671875 122.132812,30.3359375 C120.867188,31.3046875 119.046875,31.7890625 116.671875,31.7890625 C114.125,31.7890625 112.089844,31.1914062 110.566406,29.9960938 C109.042969,28.8007812 108.28125,27.171875 108.28125,25.109375 L108.28125,25.109375 L103.757812,25.109375 C103.757812,27.09375 104.308594,28.8671875 105.410156,30.4296875 C106.511719,31.9921875 108.078125,33.2226562 110.109375,34.1210938 C112.140625,35.0195312 114.328125,35.46875 116.671875,35.46875 Z M138.820312,35 L138.820312,19.2265625 L156.023438,19.2265625 L156.023438,35 L160.546875,35 L160.546875,0.875 L156.023438,0.875 L156.023438,15.546875 L138.820312,15.546875 L138.820312,0.875 L134.320312,0.875 L134.320312,35 L138.820312,35 Z M181.101562,35.46875 C183.851562,35.46875 186.257812,34.8125 188.320312,33.5 C190.382812,32.1875 191.976562,30.2851562 193.101562,27.7929688 C194.226562,25.3007812 194.789062,22.3828125 194.789062,19.0390625 L194.789062,19.0390625 L194.789062,16.8828125 C194.789062,13.5546875 194.226562,10.6367187 193.101562,8.12890625 C191.976562,5.62109375 190.371094,3.70703125 188.285156,2.38671875 C186.199219,1.06640625 183.789062,0.40625 181.054688,0.40625 C178.367188,0.40625 175.980469,1.07421875 173.894531,2.41015625 C171.808594,3.74609375 170.195312,5.671875 169.054688,8.1875 C167.914062,10.703125 167.34375,13.6015625 167.34375,16.8828125 L167.34375,16.8828125 L167.34375,19.34375 C167.375,22.5625 167.964844,25.3945312 169.113281,27.8398438 C170.261719,30.2851562 171.875,32.1679688 173.953125,33.4882812 C176.03125,34.8085938 178.414062,35.46875 181.101562,35.46875 Z M181.101562,31.6484375 C178.210938,31.6484375 175.941406,30.5273438 174.292969,28.2851562 C172.644531,26.0429688 171.820312,22.9609375 171.820312,19.0390625 L171.820312,19.0390625 L171.820312,16.53125 C171.867188,12.6875 172.707031,9.68359375 174.339844,7.51953125 C175.972656,5.35546875 178.210938,4.2734375 181.054688,4.2734375 C183.976562,4.2734375 186.25,5.35546875 187.875,7.51953125 C189.5,9.68359375 190.3125,12.7890625 190.3125,16.8359375 L190.3125,16.8359375 L190.3125,19.3671875 C190.265625,23.3203125 189.445312,26.3554688 187.851562,28.4726562 C186.257812,30.5898438 184.007812,31.6484375 181.101562,31.6484375 Z M213.515625,35 L213.515625,4.578125 L224.484375,4.578125 L224.484375,0.875 L198.09375,0.875 L198.09375,4.578125 L209.039062,4.578125 L209.039062,35 L213.515625,35 Z" id="BOWSHOT" fill="#FFFFFF" fill-rule="nonzero"></path>
    </g>
</svg>