<?xml version="1.0" encoding="UTF-8"?>
<svg width="12px" height="12px" viewBox="0 0 12 12" version="1.1" xmlns="http://www.w3.org/2000/svg" xmlns:xlink="http://www.w3.org/1999/xlink">
    <!-- Generator: Sketch 60.1 (88133) - https://sketch.com -->
    <title>Icons/Miscellaneous/plus</title>
    <desc>Created with Sketch.</desc>
    <g id="Direct-Message" stroke="none" stroke-width="1" fill="none" fill-rule="evenodd">
        <g transform="translate(-166.000000, -199.000000)" fill="#00FF76" id="Icons/Miscellaneous/plus">
            <g transform="translate(166.000000, 199.000000)">
                <path d="M6.85722857,5.14311429 L6.85722857,0.8574 C6.85722857,0.3834 6.47408571,0.000257142857 6.00008571,0.000257142857 C5.52608571,0.000257142857 5.14294286,0.3834 5.14294286,0.8574 L5.14294286,5.14311429 L0.857228571,5.14311429 C0.383228571,5.14311429 8.57142857e-05,5.52625714 8.57142857e-05,6.00025714 C8.57142857e-05,6.47425714 0.383228571,6.8574 0.857228571,6.8574 L5.14294286,6.8574 L5.14294286,11.1431143 C5.14294286,11.6171143 5.52608571,12.0002571 6.00008571,12.0002571 C6.47408571,12.0002571 6.85722857,11.6171143 6.85722857,11.1431143 L6.85722857,6.8574 L11.1429429,6.8574 C11.6160857,6.8574 12.0000857,6.47425714 12.0000857,6.00025714 C12.0000857,5.52625714 11.6160857,5.14311429 11.1429429,5.14311429 L6.85722857,5.14311429 Z" id="plus"></path>
            </g>
        </g>
    </g>
</svg>